<svg width="112" height="112" viewBox="0 0 112 112" style="filter: drop-shadow(rgba(168, 85, 247, 0.25) 0px 4px 40px);" xmlns="http://www.w3.org/2000/svg"><rect x="0" y="0" width="112" height="112" rx="24" fill="#a855f7" stroke="none" stroke-width="0"/><foreignObject x="32" y="32" width="48" height="48"><svg xmlns="http://www.w3.org/1999/xhtml" width="24" height="24" viewBox="0 0 24 24" fill="none" stroke="currentColor" stroke-width="2" stroke-linecap="round" stroke-linejoin="round" class="lucide lucide-shield" aria-hidden="true" style="width: 48px; height: 48px; color: rgb(255, 255, 255);"><path d="M20 13c0 5-3.5 7.5-7.66 8.95a1 1 0 0 1-.67-.01C7.5 20.5 4 18 4 13V6a1 1 0 0 1 1-1c2 0 4.5-1.2 6.24-2.72a1.17 1.17 0 0 1 1.52 0C14.51 3.81 17 5 19 5a1 1 0 0 1 1 1z"/></svg></foreignObject></svg>